<?xml version="1.0" encoding="UTF-8" standalone="no"?>
<!DOCTYPE svg PUBLIC "-//W3C//DTD SVG 1.1//EN" "http://www.w3.org/Graphics/SVG/1.1/DTD/svg11.dtd">
<svg width="100%" height="100%" viewBox="0 0 934 934" version="1.1" xmlns="http://www.w3.org/2000/svg" xmlns:xlink="http://www.w3.org/1999/xlink" xml:space="preserve" style="fill-rule:evenodd;clip-rule:evenodd;stroke-linejoin:round;stroke-miterlimit:10;fill:white;">
    <g>
        <path d="M0,0L933.333,0L933.333,933.333L0,933.333L0,0Z" style="fill-opacity:0;"/>
        <path d="M250.059,777.572L220.197,718.796L207.633,649.688L209.97,578.79L205.108,469.016L220.654,383.388L259.637,294.023L323.976,207.418L408.147,162.145L482.639,153.192L568.925,172.476L654.927,200.355L701.454,268.128L714.507,386.702L714.003,466.245L705.168,541.284L676.982,688.965L649.151,761.402L594.071,824.575L492.598,880.181L413.936,886.885L332.315,854.814L250.059,777.572Z" style="fill-opacity:0;"/>
        <path d="M250.059,777.572L220.197,718.796L207.633,649.688L209.97,578.79L205.108,469.016L220.654,383.388L259.637,294.023L323.976,207.418L408.147,162.145L482.639,153.192L568.925,172.476L654.927,200.355L701.454,268.128L714.507,386.702L714.003,466.245L705.168,541.284L676.982,688.965L649.151,761.402L594.071,824.575L492.598,880.181L413.936,886.885L332.315,854.814L250.059,777.572Z" style="fill:none;stroke:black;stroke-width:2px;"/>
        <path d="M193.184,431.331L192.557,356.917L203.51,281.923L235.433,213.888L307.532,148.977L342.273,124.011L364.376,96.592L484.773,45.745L571.554,49.988L637.854,96.743L695.184,158.33L729.568,208.613L732.457,249.535L733.512,281.811L748.619,338.076L743.18,374.499L703.714,285.39L657.542,206.875L537.932,169.584L489.564,157.667L415.071,166.62L322.427,211.689L255.899,300.39L221.08,392.005L216.894,429.827L193.184,431.331Z" style="fill-opacity:0;"/>
        <path d="M193.184,431.331L192.557,356.917L203.51,281.923L235.433,213.888L307.532,148.977L342.273,124.011L364.376,96.592L484.773,45.745L571.554,49.988L637.854,96.743L695.184,158.33L729.568,208.613L732.457,249.535L733.512,281.811L748.619,338.076L743.18,374.499L703.714,285.39L657.542,206.875L537.932,169.584L489.564,157.667L415.071,166.62L322.427,211.689L255.899,300.39L221.08,392.005L216.894,429.827L193.184,431.331Z" style="fill:none;stroke:black;stroke-width:2px;"/>
        <path d="M745.441,370.256L739.502,421.715L737.335,442.71L714.426,436.121L713.313,380.231L701.74,281.045L745.441,370.256Z" style="fill-opacity:0;"/>
        <path d="M745.441,370.256L739.502,421.715L737.335,442.71L714.426,436.121L713.313,380.231L701.74,281.045L745.441,370.256Z" style="fill:none;stroke:black;stroke-width:2px;"/>
        <path d="M186.259,432.269L318.064,416.834L387.484,422.616L445.928,444.889L492.906,444.913L593.325,424.138L691.813,428.532L745.703,444.183L732.929,497.221L704.317,535.06L689.028,565.425L624.554,598.15L528.161,582.26L500.963,553.932L477.707,482.109L428.461,479.915L400.263,551.928L364.829,580.976L313.404,583.443L250.687,577.334L212.086,531.322L186.792,475.549L186.259,432.269Z" style="fill:none;"/>
        <path d="M186.259,432.269L318.064,416.834L387.484,422.616L445.928,444.889L492.906,444.913L593.325,424.138L691.813,428.532L745.703,444.183L732.929,497.221L704.317,535.06L689.028,565.425L624.554,598.15L528.161,582.26L500.963,553.932L477.707,482.109L428.461,479.915L400.263,551.928L364.829,580.976L313.404,583.443L250.687,577.334L212.086,531.322L186.792,475.549L186.259,432.269Z" style="fill:none;stroke:black;stroke-width:2px;"/>
        <path d="M217.785,448.992L220.525,489.889L250.323,547.724L306.414,560.986L380.112,550.611L401.802,494.868L398.972,447.141L318.289,435.053L217.785,448.992Z" style="fill-opacity:0;"/>
        <path d="M217.785,448.992L220.525,489.889L250.323,547.724L306.414,560.986L380.112,550.611L401.802,494.868L398.972,447.141L318.289,435.053L217.785,448.992Z" style="fill:none;stroke:black;stroke-width:2px;"/>
        <path d="M508.522,453.055L511.312,498.052L541.182,561.81L597.293,576.667L670.983,565.608L692.605,504.398L689.717,451.887L609.014,438.205L508.522,453.055Z" style="fill-opacity:0;"/>
        <path d="M508.522,453.055L511.312,498.052L541.182,561.81L597.293,576.667L670.983,565.608L692.605,504.398L689.717,451.887L609.014,438.205L508.522,453.055Z" style="fill:none;stroke:black;stroke-width:2px;"/>
        <path d="M487.991,43.479L657.598,203.825" style="fill-opacity:0;"/>
        <path d="M487.991,43.479L657.598,203.825" style="fill:none;stroke:black;stroke-width:2px;"/>
        <path d="M484.912,157.286L640.124,97.349" style="fill-opacity:0;"/>
        <path d="M484.912,157.286L640.124,97.349" style="fill:none;stroke:black;stroke-width:2px;"/>
        <path d="M483.563,155.858L569.295,51.732" style="fill-opacity:0;"/>
        <path d="M483.563,155.858L569.295,51.732" style="fill:none;stroke:black;stroke-width:2px;"/>
        <path d="M494.744,49.929L636.571,97.173" style="fill-opacity:0;"/>
        <path d="M494.744,49.929L636.571,97.173" style="fill:none;stroke:black;stroke-width:2px;"/>
        <path d="M407.203,169.405L493.376,50.539" style="fill-opacity:0;"/>
        <path d="M407.203,169.405L493.376,50.539" style="fill:none;stroke:black;stroke-width:2px;"/>
        <path d="M364.957,99.232L497.429,155.547" style="fill-opacity:0;"/>
        <path d="M364.957,99.232L497.429,155.547" style="fill:none;stroke:black;stroke-width:2px;"/>
        <path d="M485.043,48.302L323.783,208.428" style="fill-opacity:0;"/>
        <path d="M485.043,48.302L323.783,208.428" style="fill:none;stroke:black;stroke-width:2px;"/>
        <path d="M343.94,123.88L414.775,167.88" style="fill-opacity:0;"/>
        <path d="M343.94,123.88L414.775,167.88" style="fill:none;stroke:black;stroke-width:2px;"/>
        <path d="M237.911,212.872L324.115,209.471" style="fill-opacity:0;"/>
        <path d="M237.911,212.872L324.115,209.471" style="fill:none;stroke:black;stroke-width:2px;"/>
        <path d="M300.404,155.68L320.215,207.208" style="fill-opacity:0;"/>
        <path d="M300.404,155.68L320.215,207.208" style="fill:none;stroke:black;stroke-width:2px;"/>
        <path d="M312.906,177.636L380.559,149.258" style="fill-opacity:0;"/>
        <path d="M312.906,177.636L380.559,149.258" style="fill:none;stroke:black;stroke-width:2px;"/>
        <path d="M275.652,208.885L299.62,161.452" style="fill-opacity:0;"/>
        <path d="M275.652,208.885L299.62,161.452" style="fill:none;stroke:black;stroke-width:2px;"/>
        <path d="M466.117,93.962L518.432,113.93" style="fill-opacity:0;"/>
        <path d="M466.117,93.962L518.432,113.93" style="fill:none;stroke:black;stroke-width:2px;"/>
        <path d="M593.933,83.039L571.917,121.401" style="fill-opacity:0;"/>
        <path d="M593.933,83.039L571.917,121.401" style="fill:none;stroke:black;stroke-width:2px;"/>
        <path d="M563.13,171.73L589.304,141.683" style="fill-opacity:0;"/>
        <path d="M563.13,171.73L589.304,141.683" style="fill:none;stroke:black;stroke-width:2px;"/>
        <path d="M638.726,97.38L655.293,204.782" style="fill-opacity:0;"/>
        <path d="M638.726,97.38L655.293,204.782" style="fill:none;stroke:black;stroke-width:2px;"/>
        <path d="M600.13,148.159L637.358,102.868" style="fill-opacity:0;"/>
        <path d="M600.13,148.159L637.358,102.868" style="fill:none;stroke:black;stroke-width:2px;"/>
        <path d="M699.277,266.502L727.624,207.73" style="fill-opacity:0;"/>
        <path d="M699.277,266.502L727.624,207.73" style="fill:none;stroke:black;stroke-width:2px;"/>
        <path d="M694.54,157.401L694.918,268.551" style="fill-opacity:0;"/>
        <path d="M694.54,157.401L694.918,268.551" style="fill:none;stroke:black;stroke-width:2px;"/>
        <path d="M648.079,109.48L688.457,252.976" style="fill-opacity:0;"/>
        <path d="M648.079,109.48L688.457,252.976" style="fill:none;stroke:black;stroke-width:2px;"/>
        <path d="M653.506,197.641L690.42,158.586" style="fill-opacity:0;"/>
        <path d="M653.506,197.641L690.42,158.586" style="fill:none;stroke:black;stroke-width:2px;"/>
        <path d="M727.042,206.379L671.987,185.309" style="fill-opacity:0;"/>
        <path d="M727.042,206.379L671.987,185.309" style="fill:none;stroke:black;stroke-width:2px;"/>
        <path d="M701.878,272.152L734.445,276.247" style="fill-opacity:0;"/>
        <path d="M701.878,272.152L734.445,276.247" style="fill:none;stroke:black;stroke-width:2px;"/>
        <path d="M728.713,218.997L712.272,271.784" style="fill-opacity:0;"/>
        <path d="M728.713,218.997L712.272,271.784" style="fill:none;stroke:black;stroke-width:2px;"/>
        <path d="M723.638,329.96L739.796,312.353" style="fill-opacity:0;"/>
        <path d="M723.638,329.96L739.796,312.353" style="fill:none;stroke:black;stroke-width:2px;"/>
        <path d="M747.067,337.508L704.547,275.083" style="fill-opacity:0;"/>
        <path d="M747.067,337.508L704.547,275.083" style="fill:none;stroke:black;stroke-width:2px;"/>
        <path d="M713.641,379.33L744.318,374.354" style="fill-opacity:0;"/>
        <path d="M713.641,379.33L744.318,374.354" style="fill:none;stroke:black;stroke-width:2px;"/>
        <path d="M737.309,374.841L725.97,441.266" style="fill-opacity:0;"/>
        <path d="M737.309,374.841L725.97,441.266" style="fill:none;stroke:black;stroke-width:2px;"/>
        <path d="M711.504,359.712L731.283,345.949" style="fill-opacity:0;"/>
        <path d="M711.504,359.712L731.283,345.949" style="fill:none;stroke:black;stroke-width:2px;"/>
        <path d="M201.423,283.963L259.282,297.79" style="fill-opacity:0;"/>
        <path d="M201.423,283.963L259.282,297.79" style="fill:none;stroke:black;stroke-width:2px;"/>
        <path d="M192.749,356.419L255.049,302.119" style="fill-opacity:0;"/>
        <path d="M192.749,356.419L255.049,302.119" style="fill:none;stroke:black;stroke-width:2px;"/>
        <path d="M236.567,211.445L256.063,297.145" style="fill-opacity:0;"/>
        <path d="M236.567,211.445L256.063,297.145" style="fill:none;stroke:black;stroke-width:2px;"/>
        <path d="M246.263,254.991L319.963,209.133" style="fill-opacity:0;"/>
        <path d="M246.263,254.991L319.963,209.133" style="fill:none;stroke:black;stroke-width:2px;"/>
        <path d="M216.408,252.182L255.967,297.757" style="fill-opacity:0;"/>
        <path d="M216.408,252.182L255.967,297.757" style="fill:none;stroke:black;stroke-width:2px;"/>
        <path d="M239.069,219.889L233.305,269.874" style="fill-opacity:0;"/>
        <path d="M239.069,219.889L233.305,269.874" style="fill:none;stroke:black;stroke-width:2px;"/>
        <path d="M195.654,373.953L225.386,377.386" style="fill-opacity:0;"/>
        <path d="M195.654,373.953L225.386,377.386" style="fill:none;stroke:black;stroke-width:2px;"/>
        <path d="M204.078,430.671L204.676,377.128" style="fill-opacity:0;"/>
        <path d="M204.078,430.671L204.676,377.128" style="fill:none;stroke:black;stroke-width:2px;"/>
        <path d="M222.283,389.957L205.212,401.674" style="fill-opacity:0;"/>
        <path d="M222.283,389.957L205.212,401.674" style="fill:none;stroke:black;stroke-width:2px;"/>
        <path d="M221.351,292.123L217.823,335.84" style="fill-opacity:0;"/>
        <path d="M221.351,292.123L217.823,335.84" style="fill:none;stroke:black;stroke-width:2px;"/>
        <path d="M217.18,375.862L233.621,323.075" style="fill-opacity:0;"/>
        <path d="M217.18,375.862L233.621,323.075" style="fill:none;stroke:black;stroke-width:2px;"/>
        <path d="M260.902,296.564L708.807,279.525" style="fill-opacity:0;"/>
        <path d="M260.902,296.564L708.807,279.525" style="fill:none;stroke:black;stroke-width:2px;"/>
        <path d="M477.142,286.351L487.157,156.618" style="fill-opacity:0;"/>
        <path d="M477.142,286.351L487.157,156.618" style="fill:none;stroke:black;stroke-width:2px;"/>
        <path d="M410.728,168.093L478.728,289.259" style="fill-opacity:0;"/>
        <path d="M410.728,168.093L478.728,289.259" style="fill:none;stroke:black;stroke-width:2px;"/>
        <path d="M324.252,213.537L479.748,290.262" style="fill-opacity:0;"/>
        <path d="M324.252,213.537L479.748,290.262" style="fill:none;stroke:black;stroke-width:2px;"/>
        <path d="M262.269,297.292L488.599,157.292" style="fill-opacity:0;"/>
        <path d="M262.269,297.292L488.599,157.292" style="fill:none;stroke:black;stroke-width:2px;"/>
        <path d="M395.931,215.248L483.963,226.366" style="fill-opacity:0;"/>
        <path d="M395.931,215.248L483.963,226.366" style="fill:none;stroke:black;stroke-width:2px;"/>
        <path d="M437.478,222.528L352.47,293.205" style="fill-opacity:0;"/>
        <path d="M437.478,222.528L352.47,293.205" style="fill:none;stroke:black;stroke-width:2px;"/>
        <path d="M460.626,175.573L462.295,225.116" style="fill-opacity:0;"/>
        <path d="M460.626,175.573L462.295,225.116" style="fill:none;stroke:black;stroke-width:2px;"/>
        <path d="M489.018,159.481L665.176,222.882" style="fill-opacity:0;"/>
        <path d="M489.018,159.481L665.176,222.882" style="fill:none;stroke:black;stroke-width:2px;"/>
        <path d="M592.244,196.879L544.244,283.115" style="fill-opacity:0;"/>
        <path d="M592.244,196.879L544.244,283.115" style="fill:none;stroke:black;stroke-width:2px;"/>
        <path d="M575.01,233.494L683.041,278.597" style="fill-opacity:0;"/>
        <path d="M575.01,233.494L683.041,278.597" style="fill:none;stroke:black;stroke-width:2px;"/>
        <path d="M630.731,254.385L650.668,218.543" style="fill-opacity:0;"/>
        <path d="M630.731,254.385L650.668,218.543" style="fill:none;stroke:black;stroke-width:2px;"/>
        <path d="M485.471,203.411L573.597,236.325" style="fill-opacity:0;"/>
        <path d="M485.471,203.411L573.597,236.325" style="fill:none;stroke:black;stroke-width:2px;"/>
        <path d="M600.295,248.071L573.271,285.11" style="fill-opacity:0;"/>
        <path d="M600.295,248.071L573.271,285.11" style="fill:none;stroke:black;stroke-width:2px;"/>
        <path d="M716.496,377.302L260.307,296.703" style="fill-opacity:0;"/>
        <path d="M716.496,377.302L260.307,296.703" style="fill:none;stroke:black;stroke-width:2px;"/>
        <path d="M573.923,287.264L571.12,353.501" style="fill-opacity:0;"/>
        <path d="M573.923,287.264L571.12,353.501" style="fill:none;stroke:black;stroke-width:2px;"/>
        <path d="M704.571,316.933L572.697,306.192" style="fill-opacity:0;"/>
        <path d="M704.571,316.933L572.697,306.192" style="fill:none;stroke:black;stroke-width:2px;"/>
        <path d="M638.133,283.209L678.448,370.264" style="fill-opacity:0;"/>
        <path d="M638.133,283.209L678.448,370.264" style="fill:none;stroke:black;stroke-width:2px;"/>
        <path d="M507.741,287.781L481.725,336.6" style="fill-opacity:0;"/>
        <path d="M507.741,287.781L481.725,336.6" style="fill:none;stroke:black;stroke-width:2px;"/>
    </g>
</svg>
